PathFileType        4      (X/Y/Z)      C:\Users\pc\Desktop\IMUTRC\Sujet_01\Sujet_01_velo_100.trc         
DataRate	CameraRate	NumFrames	NumMarkers	Units	OrigDataRate	OrigDataStartFrame	OrigNumFrames
60.0	60.0	4	64	mm	60.0	249	995
Frame#	Time	pHipOrigin			pRightASI			pLeftASI			pRightCSI			pLeftCSI			pRightIschialTub			pLeftIschialTub			pSacrum			pL5SpinalProcess			pL3SpinalProcess			pT12SpinalProcess			pIJ			pT4SpinalProcess			pT8SpinalProcess			pPX			pC7SpinalProcess			pTopOfHead			pRightAuricularis			pLeftAuricularis			pBackOfHead			pRightAcromion			pLeftAcromion			pRightArmLatEpicondyle			pRightArmMedEpicondyle			pLeftArmLatEpicondyle			pLeftArmMedEpicondyle			pRightUlnarStyloid			pRightRadialStyloid			pRightOlecranon			pLeftUlnarStyloid			pLeftRadialStyloid			pLeftOlecranon			pRightTopOfHand			pRightPinky			pRightBallHand			pLeftTopOfHand			pLeftPinky			pLeftBallHand			pRightGreaterTrochanter			pRightKneeLatEpicondyle			pRightKneeMedEpicondyle			pRightPatella			pLeftGreaterTrochanter			pLeftKneeLatEpicondyle			pLeftKneeMedEpicondyle			pLeftPatella			pRightTibialTub			pRightLatMalleolus			pRightMedMalleolus			pLeftTibialTub			pLeftLatMalleolus			pLeftMedMalleolus			pRightHeelFoot			pRightFirstMetatarsal			pRightFifthMetatarsal			pRightPivotFoot			pRightHeelCenter			pRightToe			pLeftHeelFoot			pLeftFirstMetatarsal			pLeftFifthMetatarsal			pLeftPivotFoot			pLeftHeelCenter			pLeftToe			
		X1	Y1	Z1	X2	Y2	Z2	X3	Y3	Z3	X4	Y4	Z4	X5	Y5	Z5	X6	Y6	Z6	X7	Y7	Z7	X8	Y8	Z8	X9	Y9	Z9	X10	Y10	Z10	X11	Y11	Z11	X12	Y12	Z12	X13	Y13	Z13	X14	Y14	Z14	X15	Y15	Z15	X16	Y16	Z16	X17	Y17	Z17	X18	Y18	Z18	X19	Y19	Z19	X20	Y20	Z20	X21	Y21	Z21	X22	Y22	Z22	X23	Y23	Z23	X24	Y24	Z24	X25	Y25	Z25	X26	Y26	Z26	X27	Y27	Z27	X28	Y28	Z28	X29	Y29	Z29	X30	Y30	Z30	X31	Y31	Z31	X32	Y32	Z32	X33	Y33	Z33	X34	Y34	Z34	X35	Y35	Z35	X36	Y36	Z36	X37	Y37	Z37	X38	Y38	Z38	X39	Y39	Z39	X40	Y40	Z40	X41	Y41	Z41	X42	Y42	Z42	X43	Y43	Z43	X44	Y44	Z44	X45	Y45	Z45	X46	Y46	Z46	X47	Y47	Z47	X48	Y48	Z48	X49	Y49	Z49	X50	Y50	Z50	X51	Y51	Z51	X52	Y52	Z52	X53	Y53	Z53	X54	Y54	Z54	X55	Y55	Z55	X56	Y56	Z56	X57	Y57	Z57	X58	Y58	Z58	X59	Y59	Z59	X60	Y60	Z60	X61	Y61	Z61	X62	Y62	Z62	X63	Y63	Z63	X64	Y64	Z64	
249	4.133	0.0	1250.01138	7.654112177073829E-14	44.19052999999999	1326.13045	141.04242000000008	89.32884000000001	1344.67152	-103.4863899999999	12.321219999999986	1392.41624	117.58471000000009	49.40335000000001	1407.64006	-83.46440999999992	-63.205490000000005	1198.59399	36.667470000000066	-44.66441999999999	1206.23551	-63.857089999999936	-58.94045	1274.59458	-9.00396999999993	-16.8232	1365.40434	5.449770000000082	36.31205	1458.28738	19.54809000000009	89.56579	1540.62629	31.92854000000011	322.18803	1569.23759	69.95846000000014	219.29401	1662.8907	56.21556000000013	153.48211	1613.54659	44.66442000000012	235.16942	1498.03516	54.43846000000012	257.14621	1690.90963	63.56090000000013	462.93427	1823.18502	59.76976000000017	404.29001	1755.7145	132.33463000000017	398.07016	1748.42839	0.8885500000001557	362.05429	1786.04366	66.58197000000015	225.69155999999998	1647.25223	236.94652000000013	288.30468	1627.23025	-110.83173999999987	298.55261999999993	1435.18509	320.8848300000002	280.84086999999994	1406.98845	278.4714000000002	403.10527	1410.7796	-103.19020999999987	365.01612	1385.30785	-74.69738999999987	396.53000999999995	1269.79642	401.2689400000001	428.75472999999994	1275.4239	371.9468000000001	272.37002999999993	1422.38998	314.3688000000002	548.05731	1267.72314	-119.42104999999985	559.19379	1274.95	-77.48150999999986	377.33734	1398.22143	-110.83173999999987	554.33639	1203.33292	446.9996200000001	476.2032699999999	1223.17719	452.2716800000001	428.51778999999993	1246.39795	409.7990100000001	705.92293	1227.20528	-40.39937999999984	652.43225	1239.40803	-99.75448999999985	585.61333	1250.78146	-103.96028999999986	-27.367320000000017	1220.9262	144.65585000000007	220.47873999999996	1002.69845	247.19446000000008	256.13919	1008.32593	190.50500000000008	256.85003	1036.10791	230.9043900000001	21.088240000000017	1245.86482	-148.6247099999999	305.66101	1062.17203	-218.10926999999992	325.2091	1058.26241	-153.9559999999999	333.50223	1093.27126	-187.1877499999999	280.90009999999995	977.70059	243.9364500000001	216.86530999999997	603.26585	236.59110000000007	249.97857999999997	603.44356	186.35844000000006	335.63475	1016.73753	-208.39446999999993	78.90319000000002	737.85147	-234.81399999999994	100.40609000000003	719.54735	-181.67874999999995	201.93766999999997	470.39809	159.76119000000006	379.0552	464.82984	217.8723300000001	333.08756999999997	447.11809	291.08880000000005	378.04817999999995	454.22648	266.44637000000006	238.84209999999996	464.77061	181.61951000000005	440.6612999999999	451.79778	305.12789000000004	-30.21067999999998	649.88508	-180.84942999999998	115.68914000000001	537.75013	-150.87569999999997	101.11693000000002	529.39777	-237.47964999999996	127.71418000000003	517.60968	-194.71080999999995	1.3624400000000225	620.50371	-183.33736999999996	186.23997000000003	473.0045	-200.21980999999994	
250	4.15	0.0	1250.01138	7.654112177073829E-14	45.493729999999985	1325.06419	141.2201300000001	86.66319000000001	1346.80404	-103.7233399999999	12.558169999999986	1391.23151	118.94715000000008	46.441520000000004	1409.06174	-82.45738999999992	-62.07999000000001	1197.52773	37.08213000000006	-45.19754999999999	1206.41322	-63.620139999999935	-59.3551	1274.00222	-7.878469999999929	-17.9487	1365.22663	6.812210000000082	34.65343	1458.46509	20.732820000000093	87.4925	1541.15942	32.698620000000105	320.3517	1570.89621	68.65526000000014	216.92454	1664.07543	55.623200000000125	151.23112	1614.3759	44.78289000000012	233.45156	1499.27913	54.14228000000012	254.71751	1692.27207	62.494650000000135	460.38709	1824.96212	57.75572000000017	401.92054	1757.55084	130.49830000000017	395.52298	1750.08702	-0.9477899999998445	359.56635	1787.70228	64.74564000000015	224.15140999999997	1648.97009	236.41339000000013	284.57277	1628.65193	-111.83875999999987	296.8939899999999	1437.1399	322.3065100000002	279.24147999999997	1408.58784	280.07079000000016	399.96573	1412.31975	-102.83478999999987	362.11352	1387.02571	-73.92731999999987	394.57519999999994	1271.2181	402.6313800000001	426.91839999999996	1276.96405	373.42772000000014	270.71139999999997	1424.10784	315.7904800000002	545.33242	1269.61871	-118.47325999999985	556.40967	1276.96405	-76.53372999999985	374.31627	1399.76159	-110.35783999999987	552.67777	1205.22849	448.3620600000001	474.42617999999993	1224.77658	453.5748800000001	426.6814499999999	1247.87886	411.1614500000001	703.07957	1229.21933	-39.15540999999984	649.70737	1241.36283	-98.56974999999984	582.88845	1252.73627	-102.95325999999986	-28.196640000000016	1216.89811	143.2341700000001	204.36637999999996	977.8783	234.69553000000008	241.03384999999997	984.57204	178.7761500000001	242.92941999999996	1009.80685	220.71569000000008	21.14748000000002	1248.70818	-148.8616499999999	319.58162	1088.41385	-218.28697999999991	338.71505	1084.91889	-153.9559999999999	344.69795	1120.994	-186.5361499999999	265.67628999999994	953.23586	233.51080000000007	205.01797999999997	578.26799	225.86927000000006	238.84209999999996	578.62341	176.11050000000006	348.60757	1042.97936	-208.45369999999988	88.26258000000003	767.88445	-238.13125999999994	109.11387000000003	748.98796	-184.93675999999994	187.54316999999998	447.41427	146.61066000000005	364.18681	436.51473	205.31416000000007	317.5083399999999	418.44756	277.93827000000005	362.76512999999994	424.96359	253.59202000000008	224.21064999999996	440.48359	168.46898000000004	425.02282999999994	420.40237	292.4512500000001	-20.49586999999998	678.85179	-183.98897999999997	126.35173000000002	567.96082	-153.95599999999993	111.83876000000002	559.3715	-240.50071999999997	138.55448000000004	547.8796	-197.73186999999993	11.314200000000023	649.70737	-186.41767999999996	197.31722000000002	503.92602	-203.24087999999995	
251	4.167	0.0	1250.01138	7.654112177073829E-14	47.44853999999999	1324.35335	140.92394000000007	84.23449000000001	1348.10724	-104.4934199999999	13.683659999999986	1390.46143	119.77647000000009	43.95358000000001	1409.95029	-82.04272999999992	-61.132200000000005	1196.81689	37.733730000000065	-45.96762999999999	1206.59093	-63.14624999999994	-59.65129	1273.70604	-6.634499999999929	-18.54107	1365.10816	7.700760000000081	33.76488	1458.58356	21.206710000000093	86.36701	1541.45561	32.7578600000001	319.16697	1572.02171	68.24060000000014	215.44363	1664.84551	54.67541000000013	149.86868	1614.96827	44.24976000000012	232.44454	1500.10844	54.31999000000012	253.29583	1693.21985	61.36915000000013	459.02465	1825.90991	56.09709000000017	400.5581	1758.67633	129.01738000000017	394.04207	1750.97557	-2.4286999999998446	358.20391	1788.76854	63.264720000000146	222.84820999999997	1650.98414	235.64332000000013	282.61797	1629.36277	-112.72730999999987	295.8277299999999	1438.68005	322.48422000000016	278.1159799999999	1410.00952	280.4262100000002	397.89245	1412.61593	-102.18318999999987	360.27719	1387.85502	-72.50563999999987	392.73885999999993	1272.40283	403.1645100000001	425.20053999999993	1278.08955	374.0793200000001	269.52666999999997	1425.58876	316.02743000000015	543.37761	1270.15184	-117.52547999999986	554.45486	1277.49718	-75.58593999999984	372.36146	1400.29472	-109.29157999999987	550.84143	1206.29475	449.0729000000001	472.5898399999999	1225.84284	454.2264800000001	424.90434999999997	1249.00436	411.75382000000013	701.12476	1229.69322	-38.32609999999983	647.69332	1241.83673	-97.68119999999985	580.8744	1253.2694	-102.00547999999986	-28.31511000000002	1214.41017	142.22715000000008	187.48393999999996	956.31617	222.1373700000001	224.50682999999998	963.00991	166.45493000000008	228.12026999999998	986.17143	209.4607300000001	20.732820000000018	1251.37383	-149.09859999999992	331.01429	1115.6627	-218.93858999999992	349.91078	1112.34545	-154.48912999999988	353.3465	1149.42758	-186.2991999999999	248.91231999999997	931.91068	222.07813000000007	189.67568999999997	556.64662	214.37737000000007	223.85522999999998	557.12051	164.91478000000006	359.92177	1070.7021	-208.6906499999999	103.48639000000003	792.17146	-240.61918999999995	124.15998000000003	773.57116	-187.24698999999993	168.40973999999997	428.16237	132.03845000000007	344.46101	410.2729	190.80119000000005	297.07169999999996	392.02802	262.95140000000004	342.5061999999999	397.6555	238.84210000000004	204.78102999999996	419.57306	153.77829000000006	404.46771999999993	390.19169	277.64209000000005	-2.6064099999999772	699.22919	-185.76606999999996	148.03234000000003	593.4918	-155.67386999999994	133.57860000000002	584.13242	-242.21857999999995	160.76822000000004	573.64753	-199.39049999999995	30.21068000000002	671.21026	-188.19477999999998	220.95263000000003	531.82647	-204.95873999999995	
252	4.183	0.0	1250.01138	7.654112177073829E-14	49.69952999999999	1323.87946	140.4500500000001	81.92426000000002	1348.99579	-105.5596799999999	15.283049999999985	1389.92831	120.19112000000008	41.82106000000001	1410.54265	-82.04272999999992	-60.18442000000001	1196.40223	38.62228000000007	-46.97464999999999	1206.70941	-62.553879999999936	-59.829	1273.46909	-5.449769999999929	-18.83725	1364.98968	8.293130000000081	33.35022	1458.58356	21.38442000000009	85.77464	1541.69255	32.4024400000001	318.39689	1572.91026	68.35907000000014	214.67355	1665.43787	53.60915000000013	149.15784	1615.32369	43.36121000000012	231.85217	1500.76004	54.79388000000012	252.40728	1693.93069	60.24365000000014	458.43229	1826.3838	54.67541000000017	399.84726	1759.44641	127.83265000000016	393.21276	1751.56794	-3.6134299999998447	357.49307	1789.53862	62.02075000000015	221.90041999999997	1652.99818	234.75477000000015	281.84789	1629.65895	-113.49737999999988	295.11688999999996	1439.92402	322.0695600000002	277.22742999999997	1411.13502	280.18926000000016	396.47077	1412.26051	-101.23539999999987	359.15169	1388.09197	-70.72853999999987	391.02099999999996	1273.29138	403.3422200000001	423.60114999999996	1278.74115	374.3162700000001	268.75658999999996	1426.9512	315.6127700000002	541.77823	1269.85565	-116.57768999999986	553.03319	1277.26023	-74.69738999999984	370.99902	1400.23548	-107.98837999999988	548.94586	1206.82788	449.3690800000001	470.7534999999999	1226.4352	454.46343000000013	423.12724999999995	1249.77444	411.9315300000001	699.70308	1229.16009	-37.615259999999836	646.21241	1241.48131	-96.91112999999984	579.39349	1252.91398	-101.17616999999986	-27.959690000000016	1212.98849	141.6347800000001	170.00912999999997	937.89358	210.11233000000007	206.91354999999996	943.99495	154.2521900000001	212.54102999999998	965.32014	198.0280600000001	19.962740000000018	1253.86176	-149.2763099999999	339.95902	1143.08926	-219.47171999999992	358.61856	1139.89049	-154.9630299999999	359.44788	1177.80193	-186.00301999999985	231.37827999999996	912.95495	209.93462000000008	170.83843999999996	537.92784	201.40454000000005	205.25492999999997	538.28326	152.06043000000005	369.93276	1099.01721	-208.63140999999987	123.38990000000003	811.83803	-241.92239999999993	144.12272000000002	794.12627	-188.31324999999993	144.83356	412.5239	115.62990000000005	319.87781	386.04512	174.15569000000005	271.5999499999999	367.80024	245.65431000000007	317.33063	372.24299	221.78195000000005	180.79019999999997	401.92054	137.19204000000005	378.87748999999997	361.28421	260.46347000000003	22.03603000000002	713.32751	-185.88454999999993	178.24302000000003	616.00172	-155.97004999999993	163.90776000000002	605.27989	-242.33705999999995	191.80821000000003	596.57211	-199.62744999999995	56.27480000000002	687.02644	-188.31324999999998	254.30286000000004	557.83135	-205.19568999999996	
